<svg width="16" height="16" viewBox="0 0 16 16" fill="none" xmlns="http://www.w3.org/2000/svg">
<path d="M14.4668 5.06668L10.9335 1.53334C10.8002 1.40001 10.6668 1.33334 10.4668 1.33334H5.5335C5.3335 1.33334 5.20016 1.40001 5.06683 1.53334L1.5335 5.06668C1.40016 5.20001 1.3335 5.33334 1.3335 5.53334V10.5333C1.3335 10.7333 1.40016 10.8667 1.5335 11L5.06683 14.5333C5.20016 14.6 5.3335 14.6667 5.5335 14.6667H10.5335C10.7335 14.6667 10.8668 14.6 11.0002 14.4667L14.5335 10.9333C14.6668 10.8 14.7335 10.6667 14.7335 10.4667V5.53334C14.6668 5.33334 14.6002 5.20001 14.4668 5.06668ZM8.00016 11.3333C7.60016 11.3333 7.3335 11.0667 7.3335 10.6667C7.3335 10.2667 7.60016 10 8.00016 10C8.40016 10 8.66683 10.2667 8.66683 10.6667C8.66683 11.0667 8.40016 11.3333 8.00016 11.3333ZM8.66683 8.00001C8.66683 8.40001 8.40016 8.66668 8.00016 8.66668C7.60016 8.66668 7.3335 8.40001 7.3335 8.00001V5.33334C7.3335 4.93334 7.60016 4.66668 8.00016 4.66668C8.40016 4.66668 8.66683 4.93334 8.66683 5.33334V8.00001Z" fill="#FE0404"/>
</svg>
