<svg width="149" height="32" viewBox="0 0 149 32" fill="none" xmlns="http://www.w3.org/2000/svg">
<path d="M17.5118 6.66667C18.025 5.77778 19.308 5.77778 19.8212 6.66667L31.3682 26.6667C31.8814 27.5556 31.2399 28.6667 30.2135 28.6667H7.1195C6.0931 28.6667 5.4516 27.5556 5.9648 26.6667L17.5118 6.66667Z" fill="#021E45"/>
<path d="M12.1781 25.3333C12.6913 26.2221 13.9743 26.2221 14.4875 25.3333L26.0345 5.33325C26.5477 4.44436 25.9062 3.33325 24.8798 3.33325H1.78582C0.759422 3.33325 0.117922 4.44436 0.631123 5.33325L12.1781 25.3333Z" fill="#0458FE"/>
<path d="M37.3333 7.26404H40.4533L44.7493 20.824H44.7973L49.1893 7.26404H52.2373L46.3813 24.4H43.0453L37.3333 7.26404Z" fill="#101215"/>
<path d="M60.7727 17.104C60.7407 16.672 60.6447 16.256 60.4847 15.856C60.3407 15.456 60.1327 15.112 59.8607 14.824C59.6047 14.52 59.2847 14.28 58.9007 14.104C58.5327 13.912 58.1167 13.816 57.6527 13.816C57.1727 13.816 56.7327 13.904 56.3327 14.08C55.9487 14.24 55.6127 14.472 55.3247 14.776C55.0527 15.064 54.8287 15.408 54.6527 15.808C54.4927 16.208 54.4047 16.64 54.3887 17.104H60.7727ZM54.3887 18.904C54.3887 19.384 54.4527 19.848 54.5807 20.296C54.7247 20.744 54.9327 21.136 55.2047 21.472C55.4767 21.808 55.8207 22.08 56.2367 22.288C56.6527 22.48 57.1487 22.576 57.7247 22.576C58.5247 22.576 59.1647 22.408 59.6447 22.072C60.1407 21.72 60.5087 21.2 60.7487 20.512H63.3407C63.1967 21.184 62.9487 21.784 62.5967 22.312C62.2447 22.84 61.8207 23.288 61.3247 23.656C60.8287 24.008 60.2687 24.272 59.6447 24.448C59.0367 24.64 58.3967 24.736 57.7247 24.736C56.7487 24.736 55.8847 24.576 55.1327 24.256C54.3807 23.936 53.7407 23.488 53.2127 22.912C52.7007 22.336 52.3087 21.648 52.0367 20.848C51.7807 20.048 51.6527 19.168 51.6527 18.208C51.6527 17.328 51.7887 16.496 52.0607 15.712C52.3487 14.912 52.7487 14.216 53.2607 13.624C53.7887 13.016 54.4207 12.536 55.1567 12.184C55.8927 11.832 56.7247 11.656 57.6527 11.656C58.6287 11.656 59.5007 11.864 60.2687 12.28C61.0527 12.68 61.7007 13.216 62.2127 13.888C62.7247 14.56 63.0927 15.336 63.3167 16.216C63.5567 17.08 63.6207 17.976 63.5087 18.904H54.3887Z" fill="#101215"/>
<path d="M65.5886 11.992H68.1806V13.816L68.2286 13.864C68.6446 13.176 69.1886 12.64 69.8606 12.256C70.5326 11.856 71.2766 11.656 72.0926 11.656C73.4526 11.656 74.5246 12.008 75.3086 12.712C76.0926 13.416 76.4846 14.472 76.4846 15.88V24.4H73.7486V16.6C73.7166 15.624 73.5086 14.92 73.1246 14.488C72.7406 14.04 72.1406 13.816 71.3246 13.816C70.8606 13.816 70.4446 13.904 70.0766 14.08C69.7086 14.24 69.3966 14.472 69.1406 14.776C68.8846 15.064 68.6846 15.408 68.5406 15.808C68.3966 16.208 68.3246 16.632 68.3246 17.08V24.4H65.5886V11.992Z" fill="#101215"/>
<path d="M91.0579 24.4H88.4659V22.72H88.4179C88.0499 23.44 87.5139 23.96 86.8099 24.28C86.1059 24.584 85.3619 24.736 84.5779 24.736C83.6019 24.736 82.7459 24.568 82.0099 24.232C81.2899 23.88 80.6899 23.408 80.2099 22.816C79.7299 22.224 79.3699 21.528 79.1299 20.728C78.8899 19.912 78.7699 19.04 78.7699 18.112C78.7699 16.992 78.9219 16.024 79.2259 15.208C79.5299 14.392 79.9299 13.72 80.4259 13.192C80.9379 12.664 81.5139 12.28 82.1539 12.04C82.8099 11.784 83.4739 11.656 84.1459 11.656C84.5299 11.656 84.9219 11.696 85.3219 11.776C85.7219 11.84 86.1059 11.952 86.4739 12.112C86.8419 12.272 87.1779 12.48 87.4819 12.736C87.8019 12.976 88.0659 13.264 88.2739 13.6H88.3219V7.26404H91.0579V24.4ZM81.5059 18.328C81.5059 18.856 81.5699 19.376 81.6979 19.888C81.8419 20.4 82.0499 20.856 82.3219 21.256C82.6099 21.656 82.9699 21.976 83.4019 22.216C83.8339 22.456 84.3459 22.576 84.9379 22.576C85.5459 22.576 86.0659 22.448 86.4979 22.192C86.9459 21.936 87.3059 21.6 87.5779 21.184C87.8659 20.768 88.0739 20.304 88.2019 19.792C88.3459 19.264 88.4179 18.728 88.4179 18.184C88.4179 16.808 88.1059 15.736 87.4819 14.968C86.8739 14.2 86.0419 13.816 84.9859 13.816C84.3459 13.816 83.8019 13.952 83.3539 14.224C82.9219 14.48 82.5619 14.824 82.2739 15.256C82.0019 15.672 81.8019 16.152 81.6739 16.696C81.5619 17.224 81.5059 17.768 81.5059 18.328Z" fill="#101215"/>
<path d="M102.562 17.104C102.53 16.672 102.434 16.256 102.274 15.856C102.13 15.456 101.922 15.112 101.65 14.824C101.394 14.52 101.074 14.28 100.69 14.104C100.322 13.912 99.9058 13.816 99.4418 13.816C98.9618 13.816 98.5218 13.904 98.1218 14.08C97.7378 14.24 97.4018 14.472 97.1138 14.776C96.8418 15.064 96.6178 15.408 96.4418 15.808C96.2818 16.208 96.1938 16.64 96.1778 17.104H102.562ZM96.1778 18.904C96.1778 19.384 96.2418 19.848 96.3698 20.296C96.5138 20.744 96.7218 21.136 96.9938 21.472C97.2658 21.808 97.6098 22.08 98.0258 22.288C98.4418 22.48 98.9378 22.576 99.5138 22.576C100.314 22.576 100.954 22.408 101.434 22.072C101.93 21.72 102.298 21.2 102.538 20.512H105.13C104.986 21.184 104.738 21.784 104.386 22.312C104.034 22.84 103.61 23.288 103.114 23.656C102.618 24.008 102.058 24.272 101.434 24.448C100.826 24.64 100.186 24.736 99.5138 24.736C98.5378 24.736 97.6738 24.576 96.9218 24.256C96.1698 23.936 95.5298 23.488 95.0018 22.912C94.4898 22.336 94.0978 21.648 93.8258 20.848C93.5698 20.048 93.4418 19.168 93.4418 18.208C93.4418 17.328 93.5778 16.496 93.8498 15.712C94.1378 14.912 94.5378 14.216 95.0498 13.624C95.5778 13.016 96.2098 12.536 96.9458 12.184C97.6818 11.832 98.5138 11.656 99.4418 11.656C100.418 11.656 101.29 11.864 102.058 12.28C102.842 12.68 103.49 13.216 104.002 13.888C104.514 14.56 104.882 15.336 105.106 16.216C105.346 17.08 105.41 17.976 105.298 18.904H96.1778Z" fill="#101215"/>
<path d="M107.378 11.992H109.946V14.392H109.994C110.074 14.056 110.226 13.728 110.45 13.408C110.69 13.088 110.97 12.8 111.29 12.544C111.626 12.272 111.994 12.056 112.394 11.896C112.794 11.736 113.202 11.656 113.618 11.656C113.938 11.656 114.154 11.664 114.266 11.68C114.394 11.696 114.522 11.712 114.65 11.728V14.368C114.458 14.336 114.258 14.312 114.05 14.296C113.858 14.264 113.666 14.248 113.474 14.248C113.01 14.248 112.57 14.344 112.154 14.536C111.754 14.712 111.402 14.984 111.098 15.352C110.794 15.704 110.554 16.144 110.378 16.672C110.202 17.2 110.114 17.808 110.114 18.496V24.4H107.378V11.992Z" fill="#101215"/>
<path d="M119.199 14.44H124.095C124.815 14.44 125.415 14.24 125.895 13.84C126.375 13.424 126.615 12.832 126.615 12.064C126.615 11.2 126.399 10.592 125.967 10.24C125.535 9.88804 124.911 9.71204 124.095 9.71204H119.199V14.44ZM116.199 7.26404H124.527C126.063 7.26404 127.295 7.61604 128.223 8.32004C129.151 9.02404 129.615 10.088 129.615 11.512C129.615 12.376 129.399 13.12 128.967 13.744C128.551 14.352 127.951 14.824 127.167 15.16V15.208C128.223 15.432 129.023 15.936 129.567 16.72C130.111 17.488 130.383 18.456 130.383 19.624C130.383 20.296 130.263 20.928 130.023 21.52C129.783 22.096 129.407 22.6 128.895 23.032C128.383 23.448 127.727 23.784 126.927 24.04C126.127 24.28 125.175 24.4 124.071 24.4H116.199V7.26404ZM119.199 21.952H124.503C125.415 21.952 126.119 21.72 126.615 21.256C127.127 20.776 127.383 20.104 127.383 19.24C127.383 18.392 127.127 17.744 126.615 17.296C126.119 16.832 125.415 16.6 124.503 16.6H119.199V21.952Z" fill="#101215"/>
<path d="M132.786 7.26404H135.522V9.85604H132.786V7.26404ZM132.786 11.992H135.522V24.4H132.786V11.992Z" fill="#101215"/>
<path d="M138.071 11.992H148.151V13.912L141.047 22.24H148.511V24.4H137.591V22.48L144.455 14.152H138.071V11.992Z" fill="#101215"/>
</svg>
