<svg width="544" height="349" viewBox="0 0 544 349" fill="none" xmlns="http://www.w3.org/2000/svg">
<rect y="0.400024" width="544" height="348" rx="16" fill="#F7F7F7"/>
<path d="M64 49.4V155.9C64 162.527 69.3726 167.9 76 167.9H120.5C127.127 167.9 132.5 162.527 132.5 155.9V100.9C132.5 94.2726 137.873 88.9 144.5 88.9H237.5C244.127 88.9 249.5 94.2726 249.5 100.9V202.4C249.5 209.027 254.873 214.4 261.5 214.4H421C427.627 214.4 433 219.773 433 226.4V295.9" stroke="black" stroke-opacity="0.12" stroke-width="3"/>
<path d="M64 49.4V155.9C64 162.527 69.3726 167.9 76 167.9H120.5C127.127 167.9 132.5 162.527 132.5 155.9V100.9C132.5 94.2726 137.873 88.9 144.5 88.9H237.5C244.127 88.9 249.5 94.2726 249.5 100.9V202.4C249.5 209.027 254.873 214.4 261.5 214.4H322.5" stroke="#021E45" stroke-width="3"/>
<rect x="30" y="34.4" width="76" height="28" rx="6" fill="#021E45"/>
<path d="M42.8608 52.4V43.6728H44.4418V51.0747H48.2855V52.4H42.8608ZM50.0695 52.4V45.8546H51.6121V52.4H50.0695ZM50.8451 44.9256C50.6007 44.9256 50.3905 44.8446 50.2144 44.6827C50.0382 44.5179 49.9502 44.3205 49.9502 44.0904C49.9502 43.8574 50.0382 43.66 50.2144 43.498C50.3905 43.3333 50.6007 43.2509 50.8451 43.2509C51.0922 43.2509 51.3024 43.3333 51.4757 43.498C51.6519 43.66 51.7399 43.8574 51.7399 44.0904C51.7399 44.3205 51.6519 44.5179 51.4757 44.6827C51.3024 44.8446 51.0922 44.9256 50.8451 44.9256ZM58.8517 47.5847L57.4454 47.7381C57.4057 47.596 57.3361 47.4625 57.2366 47.3375C57.14 47.2125 57.0094 47.1117 56.8446 47.035C56.6798 46.9583 56.4781 46.9199 56.2395 46.9199C55.9185 46.9199 55.6486 46.9895 55.4298 47.1287C55.2139 47.2679 55.1074 47.4483 55.1102 47.6699C55.1074 47.8603 55.177 48.0151 55.319 48.1344C55.4639 48.2537 55.7025 48.3517 56.0349 48.4284L57.1514 48.6671C57.7707 48.8006 58.231 49.0122 58.5321 49.302C58.8361 49.5918 58.9895 49.971 58.9923 50.4398C58.9895 50.8517 58.8687 51.2154 58.6301 51.5307C58.3943 51.8432 58.0662 52.0875 57.6457 52.2637C57.2253 52.4398 56.7423 52.5279 56.1969 52.5279C55.3957 52.5279 54.7508 52.3603 54.2622 52.025C53.7736 51.687 53.4824 51.2168 53.3886 50.6145L54.8929 50.4696C54.9611 50.7651 55.106 50.9881 55.3275 51.1387C55.5491 51.2892 55.8375 51.3645 56.1926 51.3645C56.5591 51.3645 56.8531 51.2892 57.0747 51.1387C57.2991 50.9881 57.4113 50.802 57.4113 50.5804C57.4113 50.3929 57.3389 50.2381 57.194 50.1159C57.052 49.9938 56.8304 49.9 56.5292 49.8347L55.4128 49.6003C54.7849 49.4696 54.3204 49.2495 54.0193 48.9398C53.7182 48.6273 53.569 48.2324 53.5719 47.7551C53.569 47.3517 53.6784 47.0023 53.9 46.7068C54.1244 46.4085 54.4355 46.1784 54.8332 46.0165C55.2338 45.8517 55.6954 45.7693 56.2182 45.7693C56.9852 45.7693 57.5889 45.9327 58.0292 46.2594C58.4724 46.5861 58.7466 47.0279 58.8517 47.5847ZM64.0128 45.8546V47.0478H60.25V45.8546H64.0128ZM61.179 44.2864H62.7216V50.4313C62.7216 50.6387 62.7529 50.7978 62.8154 50.9085C62.8807 51.0165 62.9659 51.0904 63.071 51.1301C63.1762 51.1699 63.2926 51.1898 63.4205 51.1898C63.5171 51.1898 63.6051 51.1827 63.6847 51.1685C63.7671 51.1543 63.8296 51.1415 63.8722 51.1301L64.1321 52.3361C64.0497 52.3645 63.9318 52.3958 63.7784 52.4299C63.6279 52.4639 63.4432 52.4838 63.2244 52.4895C62.8381 52.5009 62.4901 52.4426 62.1804 52.3148C61.8708 52.1841 61.625 51.9824 61.4432 51.7097C61.2642 51.437 61.1762 51.096 61.179 50.687V44.2864ZM74.4128 47.5847L73.0065 47.7381C72.9668 47.596 72.8972 47.4625 72.7977 47.3375C72.7011 47.2125 72.5705 47.1117 72.4057 47.035C72.2409 46.9583 72.0392 46.9199 71.8006 46.9199C71.4795 46.9199 71.2097 46.9895 70.9909 47.1287C70.775 47.2679 70.6685 47.4483 70.6713 47.6699C70.6685 47.8603 70.7381 48.0151 70.8801 48.1344C71.025 48.2537 71.2636 48.3517 71.596 48.4284L72.7125 48.6671C73.3318 48.8006 73.792 49.0122 74.0932 49.302C74.3972 49.5918 74.5506 49.971 74.5534 50.4398C74.5506 50.8517 74.4298 51.2154 74.1912 51.5307C73.9554 51.8432 73.6273 52.0875 73.2068 52.2637C72.7864 52.4398 72.3034 52.5279 71.758 52.5279C70.9568 52.5279 70.3119 52.3603 69.8233 52.025C69.3347 51.687 69.0435 51.2168 68.9497 50.6145L70.454 50.4696C70.5222 50.7651 70.667 50.9881 70.8886 51.1387C71.1102 51.2892 71.3986 51.3645 71.7537 51.3645C72.1202 51.3645 72.4142 51.2892 72.6358 51.1387C72.8602 50.9881 72.9724 50.802 72.9724 50.5804C72.9724 50.3929 72.9 50.2381 72.7551 50.1159C72.6131 49.9938 72.3915 49.9 72.0903 49.8347L70.9739 49.6003C70.346 49.4696 69.8815 49.2495 69.5804 48.9398C69.2793 48.6273 69.1301 48.2324 69.133 47.7551C69.1301 47.3517 69.2395 47.0023 69.4611 46.7068C69.6855 46.4085 69.9966 46.1784 70.3943 46.0165C70.7949 45.8517 71.2565 45.7693 71.7793 45.7693C72.5463 45.7693 73.15 45.9327 73.5903 46.2594C74.0335 46.5861 74.3077 47.0279 74.4128 47.5847ZM78.189 52.5321C77.7742 52.5321 77.4006 52.4583 77.0682 52.3105C76.7387 52.16 76.4773 51.9384 76.2841 51.6458C76.0938 51.3531 75.9986 50.9924 75.9986 50.5634C75.9986 50.1941 76.0668 49.8887 76.2032 49.6472C76.3395 49.4057 76.5256 49.2125 76.7614 49.0676C76.9972 48.9228 77.2628 48.8134 77.5583 48.7395C77.8566 48.6628 78.1648 48.6074 78.483 48.5733C78.8665 48.5335 79.1776 48.498 79.4162 48.4668C79.6549 48.4327 79.8282 48.3816 79.9361 48.3134C80.0469 48.2424 80.1023 48.133 80.1023 47.9853V47.9597C80.1023 47.6387 80.0071 47.3901 79.8168 47.2139C79.6264 47.0378 79.3523 46.9497 78.9943 46.9497C78.6165 46.9497 78.3168 47.0321 78.0952 47.1969C77.8765 47.3617 77.7287 47.5563 77.652 47.7807L76.2117 47.5762C76.3253 47.1784 76.5128 46.846 76.7742 46.579C77.0355 46.3091 77.3551 46.1074 77.733 45.9739C78.1108 45.8375 78.5284 45.7693 78.9858 45.7693C79.3012 45.7693 79.6151 45.8063 79.9276 45.8801C80.2401 45.954 80.5256 46.0762 80.7841 46.2466C81.0426 46.4142 81.25 46.6429 81.4063 46.9327C81.5654 47.2225 81.6449 47.5847 81.6449 48.0193V52.4H80.162V51.5009H80.1108C80.0171 51.6827 79.885 51.8531 79.7145 52.0122C79.5469 52.1685 79.3353 52.2949 79.0796 52.3915C78.8267 52.4853 78.5299 52.5321 78.189 52.5321ZM78.5895 51.3986C78.8992 51.3986 79.1676 51.3375 79.3949 51.2154C79.6222 51.0904 79.7969 50.9256 79.9191 50.721C80.0441 50.5165 80.1066 50.2935 80.1066 50.052V49.2807C80.0583 49.3205 79.9759 49.3574 79.8594 49.3915C79.7458 49.4256 79.6179 49.4554 79.4759 49.481C79.3338 49.5066 79.1932 49.5293 79.054 49.5492C78.9148 49.5691 78.7941 49.5861 78.6918 49.6003C78.4617 49.6316 78.2557 49.6827 78.0739 49.7537C77.8921 49.8247 77.7486 49.9242 77.6435 50.052C77.5384 50.177 77.4858 50.3389 77.4858 50.5378C77.4858 50.8219 77.5895 51.0364 77.7969 51.1813C78.0043 51.3262 78.2685 51.3986 78.5895 51.3986ZM85.2187 43.6728V52.4H83.6761V43.6728H85.2187ZM90.1827 52.5279C89.5264 52.5279 88.9597 52.3915 88.4824 52.1188C88.008 51.8432 87.6429 51.454 87.3872 50.9512C87.1315 50.4455 87.0037 49.8503 87.0037 49.1656C87.0037 48.4924 87.1315 47.9014 87.3872 47.3929C87.6458 46.8816 88.0065 46.4838 88.4696 46.1997C88.9327 45.9128 89.4767 45.7693 90.1017 45.7693C90.5051 45.7693 90.8858 45.8347 91.2438 45.9654C91.6046 46.0932 91.9227 46.2921 92.1983 46.562C92.4767 46.8318 92.6955 47.1756 92.8546 47.5932C93.0137 48.008 93.0932 48.5023 93.0932 49.0762V49.5492H87.7281V48.5094H91.6145C91.6117 48.2139 91.5477 47.9512 91.4227 47.721C91.2977 47.4881 91.123 47.3049 90.8986 47.1713C90.677 47.0378 90.4185 46.971 90.123 46.971C89.8077 46.971 89.5307 47.0478 89.2921 47.2012C89.0534 47.3517 88.8673 47.5506 88.7338 47.7978C88.6031 48.0421 88.5364 48.3105 88.5335 48.6031V49.5108C88.5335 49.8915 88.6031 50.2182 88.7423 50.4909C88.8815 50.7608 89.0762 50.9682 89.3262 51.1131C89.5762 51.2551 89.8688 51.3262 90.204 51.3262C90.4284 51.3262 90.6315 51.2949 90.8134 51.2324C90.9952 51.1671 91.1529 51.0719 91.2864 50.9469C91.4199 50.8219 91.5208 50.6671 91.5889 50.4824L93.0293 50.6443C92.9384 51.025 92.7651 51.3574 92.5094 51.6415C92.2565 51.9228 91.9327 52.1415 91.5378 52.2978C91.1429 52.4512 90.6912 52.5279 90.1827 52.5279Z" fill="white"/>
<rect x="107" y="154.4" width="51" height="28" rx="6" fill="#021E45"/>
<path d="M119.861 172.4V163.673H123.202C123.832 163.673 124.357 163.772 124.774 163.971C125.195 164.167 125.509 164.436 125.716 164.776C125.926 165.117 126.031 165.504 126.031 165.936C126.031 166.291 125.963 166.595 125.827 166.847C125.69 167.097 125.507 167.301 125.277 167.457C125.047 167.613 124.79 167.725 124.506 167.793V167.879C124.815 167.896 125.112 167.991 125.396 168.164C125.683 168.335 125.918 168.576 126.099 168.889C126.281 169.201 126.372 169.579 126.372 170.022C126.372 170.474 126.263 170.88 126.044 171.241C125.825 171.599 125.496 171.882 125.055 172.089C124.615 172.296 124.061 172.4 123.393 172.4H119.861ZM121.442 171.079H123.142C123.716 171.079 124.129 170.97 124.382 170.751C124.638 170.529 124.766 170.245 124.766 169.899C124.766 169.64 124.702 169.407 124.574 169.2C124.446 168.99 124.264 168.825 124.028 168.705C123.793 168.583 123.511 168.522 123.185 168.522H121.442V171.079ZM121.442 167.384H123.006C123.278 167.384 123.524 167.335 123.743 167.235C123.962 167.133 124.134 166.99 124.259 166.805C124.386 166.617 124.45 166.396 124.45 166.14C124.45 165.802 124.331 165.524 124.092 165.305C123.857 165.086 123.506 164.977 123.04 164.977H121.442V167.384ZM128.159 172.4V165.855H129.702V172.4H128.159ZM128.935 164.926C128.691 164.926 128.48 164.845 128.304 164.683C128.128 164.518 128.04 164.32 128.04 164.09C128.04 163.857 128.128 163.66 128.304 163.498C128.48 163.333 128.691 163.251 128.935 163.251C129.182 163.251 129.392 163.333 129.566 163.498C129.742 163.66 129.83 163.857 129.83 164.09C129.83 164.32 129.742 164.518 129.566 164.683C129.392 164.845 129.182 164.926 128.935 164.926ZM134.197 172.515C133.683 172.515 133.223 172.383 132.817 172.119C132.41 171.855 132.089 171.471 131.853 170.968C131.618 170.465 131.5 169.855 131.5 169.136C131.5 168.409 131.619 167.795 131.858 167.295C132.099 166.792 132.424 166.413 132.834 166.157C133.243 165.899 133.699 165.769 134.201 165.769C134.585 165.769 134.9 165.835 135.148 165.965C135.395 166.093 135.591 166.248 135.736 166.43C135.88 166.609 135.993 166.778 136.072 166.937H136.136V163.673H137.683V172.4H136.166V171.369H136.072C135.993 171.528 135.878 171.697 135.727 171.876C135.576 172.052 135.378 172.203 135.13 172.328C134.883 172.453 134.572 172.515 134.197 172.515ZM134.628 171.249C134.954 171.249 135.233 171.161 135.463 170.985C135.693 170.806 135.868 170.558 135.987 170.24C136.106 169.921 136.166 169.551 136.166 169.127C136.166 168.704 136.106 168.336 135.987 168.024C135.871 167.711 135.697 167.468 135.467 167.295C135.24 167.122 134.96 167.035 134.628 167.035C134.284 167.035 133.997 167.124 133.767 167.303C133.537 167.482 133.363 167.73 133.247 168.045C133.13 168.36 133.072 168.721 133.072 169.127C133.072 169.536 133.13 169.901 133.247 170.222C133.366 170.541 133.541 170.792 133.771 170.977C134.004 171.159 134.29 171.249 134.628 171.249ZM144.98 167.585L143.574 167.738C143.534 167.596 143.465 167.463 143.365 167.338C143.268 167.213 143.138 167.112 142.973 167.035C142.808 166.958 142.607 166.92 142.368 166.92C142.047 166.92 141.777 166.99 141.558 167.129C141.342 167.268 141.236 167.448 141.239 167.67C141.236 167.86 141.305 168.015 141.447 168.134C141.592 168.254 141.831 168.352 142.163 168.428L143.28 168.667C143.899 168.801 144.359 169.012 144.661 169.302C144.965 169.592 145.118 169.971 145.121 170.44C145.118 170.852 144.997 171.215 144.759 171.531C144.523 171.843 144.195 172.088 143.774 172.264C143.354 172.44 142.871 172.528 142.325 172.528C141.524 172.528 140.879 172.36 140.391 172.025C139.902 171.687 139.611 171.217 139.517 170.615L141.021 170.47C141.09 170.765 141.234 170.988 141.456 171.139C141.678 171.289 141.966 171.365 142.321 171.365C142.688 171.365 142.982 171.289 143.203 171.139C143.428 170.988 143.54 170.802 143.54 170.58C143.54 170.393 143.467 170.238 143.322 170.116C143.18 169.994 142.959 169.9 142.658 169.835L141.541 169.6C140.913 169.47 140.449 169.249 140.148 168.94C139.847 168.627 139.697 168.232 139.7 167.755C139.697 167.352 139.807 167.002 140.028 166.707C140.253 166.409 140.564 166.178 140.962 166.017C141.362 165.852 141.824 165.769 142.347 165.769C143.114 165.769 143.717 165.933 144.158 166.259C144.601 166.586 144.875 167.028 144.98 167.585Z" fill="white"/>
<rect x="204" y="74.4" width="85" height="28" rx="6" fill="#021E45"/>
<path d="M224.033 83.6728V92.4H222.626L218.514 86.4554H218.442V92.4H216.861V83.6728H218.276L222.384 89.6216H222.46V83.6728H224.033ZM229.065 92.5279C228.409 92.5279 227.842 92.3915 227.365 92.1188C226.89 91.8432 226.525 91.454 226.269 90.9512C226.014 90.4455 225.886 89.8503 225.886 89.1656C225.886 88.4924 226.014 87.9014 226.269 87.3929C226.528 86.8816 226.889 86.4838 227.352 86.1997C227.815 85.9128 228.359 85.7693 228.984 85.7693C229.387 85.7693 229.768 85.8347 230.126 85.9654C230.487 86.0932 230.805 86.2921 231.08 86.562C231.359 86.8318 231.578 87.1756 231.737 87.5932C231.896 88.008 231.975 88.5023 231.975 89.0762V89.5492H226.61V88.5094H230.497C230.494 88.2139 230.43 87.9512 230.305 87.721C230.18 87.4881 230.005 87.3049 229.781 87.1713C229.559 87.0378 229.301 86.971 229.005 86.971C228.69 86.971 228.413 87.0478 228.174 87.2012C227.936 87.3517 227.75 87.5506 227.616 87.7978C227.485 88.0421 227.419 88.3105 227.416 88.6031V89.5108C227.416 89.8915 227.485 90.2182 227.625 90.4909C227.764 90.7608 227.958 90.9682 228.208 91.1131C228.458 91.2551 228.751 91.3262 229.086 91.3262C229.311 91.3262 229.514 91.2949 229.696 91.2324C229.877 91.1671 230.035 91.0719 230.169 90.9469C230.302 90.8219 230.403 90.6671 230.471 90.4824L231.911 90.6443C231.821 91.025 231.647 91.3574 231.392 91.6415C231.139 91.9228 230.815 92.1415 230.42 92.2978C230.025 92.4512 229.573 92.5279 229.065 92.5279ZM236.607 94.9909C236.053 94.9909 235.577 94.9156 235.179 94.7651C234.782 94.6174 234.462 94.4185 234.221 94.1685C233.979 93.9185 233.812 93.6415 233.718 93.3375L235.107 93.0009C235.17 93.1287 235.26 93.2551 235.38 93.3801C235.499 93.508 235.66 93.6131 235.861 93.6955C236.066 93.7807 236.323 93.8233 236.633 93.8233C237.07 93.8233 237.432 93.7168 237.719 93.5037C238.006 93.2935 238.15 92.9469 238.15 92.4639V91.2239H238.073C237.993 91.383 237.877 91.5463 237.723 91.7139C237.573 91.8816 237.373 92.0222 237.123 92.1358C236.875 92.2495 236.564 92.3063 236.189 92.3063C235.687 92.3063 235.231 92.1884 234.822 91.9526C234.415 91.7139 234.091 91.3588 233.85 90.8872C233.611 90.4128 233.492 89.8191 233.492 89.106C233.492 88.3872 233.611 87.7807 233.85 87.2864C234.091 86.7892 234.417 86.4128 234.826 86.1571C235.235 85.8986 235.691 85.7693 236.194 85.7693C236.577 85.7693 236.893 85.8347 237.14 85.9654C237.39 86.0932 237.589 86.248 237.736 86.4299C237.884 86.6088 237.996 86.7779 238.073 86.937H238.158V85.8546H239.679V92.5066C239.679 93.0662 239.546 93.5293 239.279 93.8958C239.012 94.2622 238.647 94.5364 238.184 94.7182C237.721 94.9 237.195 94.9909 236.607 94.9909ZM236.62 91.096C236.947 91.096 237.225 91.0165 237.455 90.8574C237.685 90.6983 237.86 90.4696 237.979 90.1713C238.098 89.873 238.158 89.5151 238.158 89.0975C238.158 88.6855 238.098 88.3247 237.979 88.0151C237.863 87.7054 237.689 87.4654 237.459 87.2949C237.232 87.1216 236.952 87.035 236.62 87.035C236.276 87.035 235.989 87.1245 235.759 87.3034C235.529 87.4824 235.356 87.7281 235.239 88.0406C235.123 88.3503 235.064 88.7026 235.064 89.0975C235.064 89.498 235.123 89.8489 235.239 90.15C235.358 90.4483 235.533 90.6813 235.763 90.8489C235.996 91.0137 236.282 91.096 236.62 91.096ZM241.74 92.4V85.8546H243.283V92.4H241.74ZM242.516 84.9256C242.272 84.9256 242.061 84.8446 241.885 84.6827C241.709 84.5179 241.621 84.3205 241.621 84.0904C241.621 83.8574 241.709 83.66 241.885 83.498C242.061 83.3333 242.272 83.2509 242.516 83.2509C242.763 83.2509 242.973 83.3333 243.147 83.498C243.323 83.66 243.411 83.8574 243.411 84.0904C243.411 84.3205 243.323 84.5179 243.147 84.6827C242.973 84.8446 242.763 84.9256 242.516 84.9256ZM248.204 92.5279C247.565 92.5279 247.011 92.3872 246.543 92.106C246.074 91.8247 245.71 91.4313 245.452 90.9256C245.196 90.4199 245.068 89.829 245.068 89.1529C245.068 88.4767 245.196 87.8844 245.452 87.3759C245.71 86.8674 246.074 86.4725 246.543 86.1912C247.011 85.91 247.565 85.7693 248.204 85.7693C248.844 85.7693 249.398 85.91 249.866 86.1912C250.335 86.4725 250.697 86.8674 250.953 87.3759C251.212 87.8844 251.341 88.4767 251.341 89.1529C251.341 89.829 251.212 90.4199 250.953 90.9256C250.697 91.4313 250.335 91.8247 249.866 92.106C249.398 92.3872 248.844 92.5279 248.204 92.5279ZM248.213 91.2921C248.56 91.2921 248.849 91.1969 249.082 91.0066C249.315 90.8134 249.489 90.5549 249.602 90.231C249.719 89.9071 249.777 89.5463 249.777 89.1486C249.777 88.748 249.719 88.3858 249.602 88.062C249.489 87.7353 249.315 87.4753 249.082 87.2821C248.849 87.0889 248.56 86.9924 248.213 86.9924C247.858 86.9924 247.562 87.0889 247.327 87.2821C247.094 87.4753 246.919 87.7353 246.802 88.062C246.689 88.3858 246.632 88.748 246.632 89.1486C246.632 89.5463 246.689 89.9071 246.802 90.231C246.919 90.5549 247.094 90.8134 247.327 91.0066C247.562 91.1969 247.858 91.2921 248.213 91.2921ZM256.399 85.8546V87.0478H252.636V85.8546H256.399ZM253.565 84.2864H255.107V90.4313C255.107 90.6387 255.139 90.7978 255.201 90.9085C255.266 91.0165 255.352 91.0904 255.457 91.1301C255.562 91.1699 255.678 91.1898 255.806 91.1898C255.903 91.1898 255.991 91.1827 256.07 91.1685C256.153 91.1543 256.215 91.1415 256.258 91.1301L256.518 92.3361C256.436 92.3645 256.318 92.3958 256.164 92.4299C256.014 92.4639 255.829 92.4838 255.61 92.4895C255.224 92.5009 254.876 92.4426 254.566 92.3148C254.257 92.1841 254.011 91.9824 253.829 91.7097C253.65 91.437 253.562 91.096 253.565 90.687V84.2864ZM260.052 92.5321C259.637 92.5321 259.264 92.4583 258.931 92.3105C258.602 92.16 258.341 91.9384 258.147 91.6458C257.957 91.3531 257.862 90.9924 257.862 90.5634C257.862 90.1941 257.93 89.8887 258.066 89.6472C258.203 89.4057 258.389 89.2125 258.625 89.0676C258.86 88.9228 259.126 88.8134 259.422 88.7395C259.72 88.6628 260.028 88.6074 260.346 88.5733C260.73 88.5335 261.041 88.498 261.28 88.4668C261.518 88.4327 261.691 88.3816 261.799 88.3134C261.91 88.2424 261.966 88.133 261.966 87.9853V87.9597C261.966 87.6387 261.87 87.3901 261.68 87.2139C261.49 87.0378 261.216 86.9497 260.858 86.9497C260.48 86.9497 260.18 87.0321 259.958 87.1969C259.74 87.3617 259.592 87.5563 259.515 87.7807L258.075 87.5762C258.189 87.1784 258.376 86.846 258.637 86.579C258.899 86.3091 259.218 86.1074 259.596 85.9739C259.974 85.8375 260.392 85.7693 260.849 85.7693C261.164 85.7693 261.478 85.8063 261.791 85.8801C262.103 85.954 262.389 86.0762 262.647 86.2466C262.906 86.4142 263.113 86.6429 263.27 86.9327C263.429 87.2225 263.508 87.5847 263.508 88.0193V92.4H262.025V91.5009H261.974C261.88 91.6827 261.748 91.8531 261.578 92.0122C261.41 92.1685 261.199 92.2949 260.943 92.3915C260.69 92.4853 260.393 92.5321 260.052 92.5321ZM260.453 91.3986C260.762 91.3986 261.031 91.3375 261.258 91.2154C261.485 91.0904 261.66 90.9256 261.782 90.721C261.907 90.5165 261.97 90.2935 261.97 90.052V89.2807C261.922 89.3205 261.839 89.3574 261.723 89.3915C261.609 89.4256 261.481 89.4554 261.339 89.481C261.197 89.5066 261.056 89.5293 260.917 89.5492C260.778 89.5691 260.657 89.5861 260.555 89.6003C260.325 89.6316 260.119 89.6827 259.937 89.7537C259.755 89.8247 259.612 89.9242 259.507 90.052C259.402 90.177 259.349 90.3389 259.349 90.5378C259.349 90.8219 259.453 91.0364 259.66 91.1813C259.868 91.3262 260.132 91.3986 260.453 91.3986ZM268.808 85.8546V87.0478H265.045V85.8546H268.808ZM265.974 84.2864H267.517V90.4313C267.517 90.6387 267.548 90.7978 267.61 90.9085C267.676 91.0165 267.761 91.0904 267.866 91.1301C267.971 91.1699 268.088 91.1898 268.215 91.1898C268.312 91.1898 268.4 91.1827 268.48 91.1685C268.562 91.1543 268.625 91.1415 268.667 91.1301L268.927 92.3361C268.845 92.3645 268.727 92.3958 268.573 92.4299C268.423 92.4639 268.238 92.4838 268.019 92.4895C267.633 92.5009 267.285 92.4426 266.975 92.3148C266.666 92.1841 266.42 91.9824 266.238 91.7097C266.059 91.437 265.971 91.096 265.974 90.687V84.2864ZM273.405 92.5279C272.749 92.5279 272.182 92.3915 271.705 92.1188C271.231 91.8432 270.866 91.454 270.61 90.9512C270.354 90.4455 270.226 89.8503 270.226 89.1656C270.226 88.4924 270.354 87.9014 270.61 87.3929C270.868 86.8816 271.229 86.4838 271.692 86.1997C272.155 85.9128 272.699 85.7693 273.324 85.7693C273.728 85.7693 274.108 85.8347 274.466 85.9654C274.827 86.0932 275.145 86.2921 275.421 86.562C275.699 86.8318 275.918 87.1756 276.077 87.5932C276.236 88.008 276.316 88.5023 276.316 89.0762V89.5492H270.951V88.5094H274.837C274.834 88.2139 274.77 87.9512 274.645 87.721C274.52 87.4881 274.346 87.3049 274.121 87.1713C273.9 87.0378 273.641 86.971 273.346 86.971C273.03 86.971 272.753 87.0478 272.515 87.2012C272.276 87.3517 272.09 87.5506 271.956 87.7978C271.826 88.0421 271.759 88.3105 271.756 88.6031V89.5108C271.756 89.8915 271.826 90.2182 271.965 90.4909C272.104 90.7608 272.299 90.9682 272.549 91.1131C272.799 91.2551 273.091 91.3262 273.427 91.3262C273.651 91.3262 273.854 91.2949 274.036 91.2324C274.218 91.1671 274.376 91.0719 274.509 90.9469C274.643 90.8219 274.743 90.6671 274.812 90.4824L276.252 90.6443C276.161 91.025 275.988 91.3574 275.732 91.6415C275.479 91.9228 275.155 92.1415 274.76 92.2978C274.366 92.4512 273.914 92.5279 273.405 92.5279Z" fill="white"/>
<rect x="281" y="200.4" width="86" height="28" rx="6" fill="#0458FE"/>
<path d="M301.331 212.617H299.737C299.692 212.356 299.608 212.124 299.486 211.923C299.364 211.718 299.212 211.545 299.03 211.403C298.848 211.261 298.641 211.154 298.408 211.083C298.178 211.009 297.929 210.972 297.662 210.972C297.188 210.972 296.767 211.092 296.401 211.33C296.034 211.566 295.747 211.913 295.54 212.37C295.332 212.825 295.229 213.38 295.229 214.036C295.229 214.704 295.332 215.267 295.54 215.724C295.75 216.178 296.037 216.522 296.401 216.755C296.767 216.985 297.186 217.1 297.658 217.1C297.919 217.1 298.163 217.066 298.391 216.998C298.621 216.927 298.827 216.823 299.009 216.687C299.193 216.551 299.348 216.383 299.473 216.184C299.601 215.985 299.689 215.758 299.737 215.502L301.331 215.511C301.271 215.926 301.142 216.315 300.943 216.678C300.747 217.042 300.49 217.363 300.172 217.642C299.854 217.917 299.482 218.133 299.055 218.289C298.629 218.443 298.156 218.519 297.636 218.519C296.869 218.519 296.185 218.342 295.582 217.987C294.98 217.632 294.506 217.119 294.159 216.448C293.813 215.778 293.639 214.974 293.639 214.036C293.639 213.096 293.814 212.292 294.163 211.624C294.513 210.954 294.989 210.441 295.591 210.086C296.193 209.731 296.875 209.553 297.636 209.553C298.122 209.553 298.574 209.622 298.991 209.758C299.409 209.894 299.781 210.095 300.108 210.359C300.435 210.62 300.703 210.941 300.913 211.322C301.126 211.7 301.266 212.132 301.331 212.617ZM306.046 218.528C305.406 218.528 304.853 218.387 304.384 218.106C303.915 217.825 303.551 217.431 303.293 216.926C303.037 216.42 302.909 215.829 302.909 215.153C302.909 214.477 303.037 213.884 303.293 213.376C303.551 212.867 303.915 212.472 304.384 212.191C304.853 211.91 305.406 211.769 306.046 211.769C306.685 211.769 307.239 211.91 307.708 212.191C308.176 212.472 308.539 212.867 308.794 213.376C309.053 213.884 309.182 214.477 309.182 215.153C309.182 215.829 309.053 216.42 308.794 216.926C308.539 217.431 308.176 217.825 307.708 218.106C307.239 218.387 306.685 218.528 306.046 218.528ZM306.054 217.292C306.401 217.292 306.691 217.197 306.924 217.007C307.156 216.813 307.33 216.555 307.443 216.231C307.56 215.907 307.618 215.546 307.618 215.149C307.618 214.748 307.56 214.386 307.443 214.062C307.33 213.735 307.156 213.475 306.924 213.282C306.691 213.089 306.401 212.992 306.054 212.992C305.699 212.992 305.404 213.089 305.168 213.282C304.935 213.475 304.76 213.735 304.644 214.062C304.53 214.386 304.473 214.748 304.473 215.149C304.473 215.546 304.53 215.907 304.644 216.231C304.76 216.555 304.935 216.813 305.168 217.007C305.404 217.197 305.699 217.292 306.054 217.292ZM312.514 214.565V218.4H310.971V211.855H312.446V212.967H312.522C312.673 212.6 312.913 212.309 313.243 212.093C313.575 211.877 313.986 211.769 314.474 211.769C314.926 211.769 315.319 211.866 315.655 212.059C315.993 212.252 316.254 212.532 316.439 212.899C316.626 213.265 316.719 213.71 316.716 214.232V218.4H315.173V214.471C315.173 214.034 315.059 213.691 314.832 213.444C314.608 213.197 314.297 213.073 313.899 213.073C313.629 213.073 313.389 213.133 313.179 213.252C312.971 213.369 312.808 213.538 312.689 213.759C312.572 213.981 312.514 214.249 312.514 214.565ZM322.032 211.855V213.048H318.27V211.855H322.032ZM319.199 210.286H320.741V216.431C320.741 216.639 320.772 216.798 320.835 216.909C320.9 217.017 320.985 217.09 321.091 217.13C321.196 217.17 321.312 217.19 321.44 217.19C321.537 217.19 321.625 217.183 321.704 217.168C321.787 217.154 321.849 217.142 321.892 217.13L322.152 218.336C322.069 218.365 321.951 218.396 321.798 218.43C321.647 218.464 321.463 218.484 321.244 218.49C320.858 218.501 320.51 218.443 320.2 218.315C319.89 218.184 319.645 217.982 319.463 217.71C319.284 217.437 319.196 217.096 319.199 216.687V210.286ZM323.802 218.4V211.855H325.298V212.945H325.366C325.486 212.568 325.69 212.276 325.98 212.072C326.273 211.865 326.606 211.761 326.981 211.761C327.067 211.761 327.162 211.765 327.267 211.774C327.375 211.779 327.464 211.789 327.535 211.803V213.222C327.47 213.2 327.366 213.18 327.224 213.163C327.085 213.143 326.95 213.133 326.82 213.133C326.538 213.133 326.285 213.194 326.061 213.316C325.839 213.436 325.665 213.602 325.537 213.815C325.409 214.028 325.345 214.274 325.345 214.552V218.4H323.802ZM330.807 218.532C330.392 218.532 330.018 218.458 329.686 218.311C329.356 218.16 329.095 217.938 328.902 217.646C328.711 217.353 328.616 216.992 328.616 216.563C328.616 216.194 328.684 215.889 328.821 215.647C328.957 215.406 329.143 215.213 329.379 215.068C329.615 214.923 329.88 214.813 330.176 214.74C330.474 214.663 330.782 214.607 331.101 214.573C331.484 214.534 331.795 214.498 332.034 214.467C332.273 214.433 332.446 214.382 332.554 214.313C332.665 214.242 332.72 214.133 332.72 213.985V213.96C332.72 213.639 332.625 213.39 332.434 213.214C332.244 213.038 331.97 212.95 331.612 212.95C331.234 212.95 330.934 213.032 330.713 213.197C330.494 213.362 330.346 213.556 330.27 213.781L328.829 213.576C328.943 213.178 329.13 212.846 329.392 212.579C329.653 212.309 329.973 212.107 330.351 211.974C330.728 211.838 331.146 211.769 331.603 211.769C331.919 211.769 332.233 211.806 332.545 211.88C332.858 211.954 333.143 212.076 333.402 212.247C333.66 212.414 333.868 212.643 334.024 212.933C334.183 213.222 334.263 213.585 334.263 214.019V218.4H332.78V217.501H332.728C332.635 217.683 332.503 217.853 332.332 218.012C332.165 218.168 331.953 218.295 331.697 218.392C331.444 218.485 331.148 218.532 330.807 218.532ZM331.207 217.399C331.517 217.399 331.785 217.338 332.013 217.215C332.24 217.09 332.415 216.926 332.537 216.721C332.662 216.517 332.724 216.293 332.724 216.052V215.281C332.676 215.32 332.594 215.357 332.477 215.392C332.363 215.426 332.236 215.455 332.094 215.481C331.951 215.507 331.811 215.529 331.672 215.549C331.532 215.569 331.412 215.586 331.309 215.6C331.079 215.632 330.873 215.683 330.692 215.754C330.51 215.825 330.366 215.924 330.261 216.052C330.156 216.177 330.103 216.339 330.103 216.538C330.103 216.822 330.207 217.036 330.415 217.181C330.622 217.326 330.886 217.399 331.207 217.399ZM339.149 218.528C338.495 218.528 337.934 218.384 337.466 218.097C337 217.811 336.64 217.414 336.387 216.909C336.137 216.4 336.012 215.815 336.012 215.153C336.012 214.488 336.14 213.901 336.396 213.393C336.652 212.882 337.012 212.484 337.478 212.2C337.947 211.913 338.501 211.769 339.14 211.769C339.672 211.769 340.142 211.867 340.551 212.063C340.963 212.257 341.291 212.531 341.535 212.886C341.78 213.238 341.919 213.65 341.953 214.122H340.478C340.419 213.806 340.277 213.543 340.052 213.333C339.831 213.12 339.534 213.014 339.162 213.014C338.846 213.014 338.569 213.099 338.331 213.269C338.092 213.437 337.906 213.678 337.772 213.994C337.642 214.309 337.576 214.687 337.576 215.127C337.576 215.573 337.642 215.957 337.772 216.278C337.903 216.596 338.086 216.842 338.322 217.015C338.561 217.186 338.841 217.271 339.162 217.271C339.389 217.271 339.592 217.228 339.771 217.143C339.953 217.055 340.105 216.928 340.227 216.764C340.349 216.599 340.433 216.399 340.478 216.163H341.953C341.916 216.626 341.78 217.036 341.544 217.394C341.308 217.749 340.987 218.028 340.581 218.23C340.174 218.428 339.697 218.528 339.149 218.528ZM346.968 211.855V213.048H343.205V211.855H346.968ZM344.134 210.286H345.677V216.431C345.677 216.639 345.708 216.798 345.771 216.909C345.836 217.017 345.921 217.09 346.026 217.13C346.131 217.17 346.248 217.19 346.376 217.19C346.472 217.19 346.56 217.183 346.64 217.168C346.722 217.154 346.785 217.142 346.827 217.13L347.087 218.336C347.005 218.365 346.887 218.396 346.734 218.43C346.583 218.464 346.398 218.484 346.18 218.49C345.793 218.501 345.445 218.443 345.136 218.315C344.826 218.184 344.58 217.982 344.398 217.71C344.219 217.437 344.131 217.096 344.134 216.687V210.286ZM353.818 213.585L352.411 213.738C352.372 213.596 352.302 213.463 352.203 213.338C352.106 213.213 351.975 213.112 351.811 213.035C351.646 212.958 351.444 212.92 351.205 212.92C350.884 212.92 350.615 212.99 350.396 213.129C350.18 213.268 350.073 213.448 350.076 213.67C350.073 213.86 350.143 214.015 350.285 214.134C350.43 214.254 350.668 214.352 351.001 214.428L352.117 214.667C352.737 214.801 353.197 215.012 353.498 215.302C353.802 215.592 353.955 215.971 353.958 216.44C353.955 216.852 353.835 217.215 353.596 217.531C353.36 217.843 353.032 218.088 352.612 218.264C352.191 218.44 351.708 218.528 351.163 218.528C350.362 218.528 349.717 218.36 349.228 218.025C348.74 217.687 348.448 217.217 348.355 216.615L349.859 216.47C349.927 216.765 350.072 216.988 350.293 217.139C350.515 217.289 350.803 217.365 351.159 217.365C351.525 217.365 351.819 217.289 352.041 217.139C352.265 216.988 352.377 216.802 352.377 216.58C352.377 216.393 352.305 216.238 352.16 216.116C352.018 215.994 351.796 215.9 351.495 215.835L350.379 215.6C349.751 215.47 349.286 215.249 348.985 214.94C348.684 214.627 348.535 214.232 348.538 213.755C348.535 213.352 348.644 213.002 348.866 212.707C349.09 212.409 349.401 212.178 349.799 212.017C350.2 211.852 350.661 211.769 351.184 211.769C351.951 211.769 352.555 211.933 352.995 212.259C353.438 212.586 353.713 213.028 353.818 213.585Z" fill="white"/>
<rect x="404" y="282.4" width="59" height="28" rx="6" fill="#BEBEBE"/>
<path d="M421.604 294.072C421.564 293.7 421.396 293.41 421.101 293.203C420.808 292.995 420.428 292.892 419.959 292.892C419.629 292.892 419.347 292.941 419.111 293.041C418.875 293.14 418.695 293.275 418.57 293.445C418.445 293.616 418.381 293.811 418.378 294.029C418.378 294.211 418.419 294.369 418.501 294.502C418.587 294.636 418.702 294.749 418.847 294.843C418.991 294.934 419.152 295.011 419.328 295.073C419.504 295.136 419.682 295.188 419.861 295.231L420.679 295.436C421.009 295.512 421.325 295.616 421.629 295.747C421.936 295.877 422.21 296.042 422.452 296.241C422.696 296.44 422.889 296.68 423.031 296.961C423.173 297.242 423.244 297.572 423.244 297.95C423.244 298.461 423.114 298.911 422.852 299.301C422.591 299.687 422.213 299.99 421.719 300.208C421.227 300.424 420.632 300.532 419.933 300.532C419.254 300.532 418.665 300.427 418.165 300.217C417.668 300.007 417.278 299.7 416.997 299.296C416.719 298.893 416.568 298.401 416.545 297.822H418.101C418.124 298.126 418.217 298.379 418.382 298.58C418.547 298.782 418.761 298.933 419.026 299.032C419.293 299.132 419.591 299.181 419.92 299.181C420.264 299.181 420.565 299.13 420.824 299.028C421.085 298.923 421.29 298.778 421.438 298.593C421.585 298.406 421.661 298.187 421.663 297.937C421.661 297.71 421.594 297.522 421.463 297.374C421.332 297.224 421.149 297.099 420.913 296.999C420.68 296.897 420.408 296.806 420.095 296.727L419.102 296.471C418.384 296.286 417.815 296.007 417.398 295.632C416.983 295.254 416.776 294.752 416.776 294.127C416.776 293.613 416.915 293.163 417.193 292.776C417.474 292.39 417.857 292.09 418.339 291.877C418.822 291.661 419.369 291.553 419.98 291.553C420.599 291.553 421.142 291.661 421.608 291.877C422.077 292.09 422.445 292.387 422.712 292.768C422.979 293.146 423.116 293.58 423.125 294.072H421.604ZM432.932 296.036C432.932 296.977 432.756 297.782 432.404 298.453C432.054 299.12 431.577 299.632 430.972 299.987C430.37 300.342 429.686 300.519 428.922 300.519C428.158 300.519 427.473 300.342 426.868 299.987C426.266 299.629 425.789 299.116 425.436 298.448C425.087 297.778 424.912 296.974 424.912 296.036C424.912 295.096 425.087 294.292 425.436 293.624C425.789 292.954 426.266 292.441 426.868 292.086C427.473 291.731 428.158 291.553 428.922 291.553C429.686 291.553 430.37 291.731 430.972 292.086C431.577 292.441 432.054 292.954 432.404 293.624C432.756 294.292 432.932 295.096 432.932 296.036ZM431.343 296.036C431.343 295.374 431.239 294.816 431.031 294.362C430.827 293.904 430.543 293.559 430.179 293.326C429.816 293.09 429.397 292.972 428.922 292.972C428.448 292.972 428.029 293.09 427.665 293.326C427.301 293.559 427.016 293.904 426.808 294.362C426.604 294.816 426.502 295.374 426.502 296.036C426.502 296.698 426.604 297.258 426.808 297.715C427.016 298.17 427.301 298.515 427.665 298.751C428.029 298.984 428.448 299.1 428.922 299.1C429.397 299.1 429.816 298.984 430.179 298.751C430.543 298.515 430.827 298.17 431.031 297.715C431.239 297.258 431.343 296.698 431.343 296.036ZM434.907 300.4V291.673H436.488V299.075H440.331V300.4H434.907ZM445.141 300.4H442.184V291.673H445.201C446.067 291.673 446.811 291.847 447.434 292.197C448.059 292.543 448.539 293.042 448.874 293.693C449.209 294.343 449.377 295.122 449.377 296.028C449.377 296.937 449.208 297.718 448.87 298.372C448.534 299.025 448.05 299.526 447.417 299.876C446.786 300.225 446.027 300.4 445.141 300.4ZM443.765 299.032H445.064C445.672 299.032 446.179 298.921 446.586 298.7C446.992 298.475 447.297 298.142 447.502 297.698C447.706 297.252 447.809 296.695 447.809 296.028C447.809 295.36 447.706 294.806 447.502 294.366C447.297 293.923 446.995 293.592 446.594 293.373C446.196 293.151 445.702 293.041 445.111 293.041H443.765V299.032Z" fill="white"/>
</svg>
